<svg xmlns="http://www.w3.org/2000/svg" xmlns:xlink="http://www.w3.org/1999/xlink" viewBox="0 0 277.06 133.63"><defs><style>.a{fill:none;}.b{isolation:isolate;}.c{fill:#ed2582;}.d,.n,.q,.r{fill:#231f20;}.d,.e{opacity:0.3;}.d,.e,.j,.n,.r{mix-blend-mode:overlay;}.e,.j{fill:#fff;}.f{fill:#e8e9e9;}.g{fill:#bebfc2;}.h{fill:#6cc4a0;}.i{fill:url(#a);}.j{opacity:0.4;}.k{fill:#d02c27;}.k,.n{opacity:0.5;}.l{fill:#a9da0c;}.m{fill:#65bc46;}.o{fill:#dcddde;}.p{fill:#a1a3a6;}.q{opacity:0.2;}.q,.x,.y{mix-blend-mode:multiply;}.r{opacity:0.1;}.s{fill:#48373f;}.t{mix-blend-mode:color-dodge;fill:url(#b);}.u{fill:#35111f;mix-blend-mode:soft-light;}.v{clip-path:url(#c);}.w{fill:#ededee;}.x,.y{opacity:0.6;}.x{fill:url(#d);}.y{fill:url(#e);}</style><linearGradient id="a" x1="392.06" y1="-141.31" x2="531.56" y2="-36.9" gradientTransform="translate(-321.03 69.05) rotate(14.47)" gradientUnits="userSpaceOnUse"><stop offset="0" stop-color="#fbaa19"/><stop offset="0.31" stop-color="#ee2424"/><stop offset="1" stop-color="#813092"/></linearGradient><radialGradient id="b" cx="278.03" cy="112.6" r="95.03" gradientUnits="userSpaceOnUse"><stop offset="0.29" stop-color="#ec008c"/><stop offset="0.43" stop-color="#b3006a"/><stop offset="0.64" stop-color="#67003d"/><stop offset="0.81" stop-color="#2f001c"/><stop offset="0.93" stop-color="#0d0008"/><stop offset="1"/></radialGradient><clipPath id="c" transform="translate(-5.47 -4.9)"><polygon class="a" points="197.9 19.04 166.94 63.28 195.35 110.45 242.08 97.66 257.05 66.78 242.08 32.39 197.9 19.04"/></clipPath><radialGradient id="d" cx="-316.62" cy="5277.34" r="53.28" gradientTransform="translate(967.2 -687.72) scale(2.6 0.15)" gradientUnits="userSpaceOnUse"><stop offset="0.23" stop-color="#f1f2f2"/><stop offset="0.49" stop-color="#f7f8f8"/><stop offset="1" stop-color="#fff"/></radialGradient><radialGradient id="e" cx="-316.62" cy="5277.34" r="35.69" xlink:href="#d"/></defs><title>logo-s-speed-server-logo</title><g class="b"><polygon class="c" points="178.58 85.28 139.04 26.5 29.57 43.79 103.12 90.26 178.58 85.28"/><polygon class="d" points="29.57 43.79 178.58 85.28 103.12 90.26 29.57 43.79"/><polygon class="e" points="139.04 26.5 29.57 43.79 156.89 53.04 139.04 26.5"/><polygon class="f" points="157.96 73.08 112.3 49.07 34.97 96.75 111.69 95.27 157.96 73.08"/><polygon class="g" points="34.97 96.75 157.96 73.08 111.69 95.27 34.97 96.75"/><polygon class="e" points="112.3 49.07 34.97 96.75 132.91 59.91 112.3 49.07"/><polygon class="h" points="207.68 56.7 195.85 17.35 125.59 0 160.7 41.22 207.68 56.7"/><polygon class="d" points="125.59 0 207.68 56.7 160.7 41.22 125.59 0"/><polygon class="e" points="195.85 17.35 125.59 0 201.19 35.12 195.85 17.35"/><polygon class="i" points="10.82 65.47 189.88 105.55 192.43 14.14 10.82 65.47"/><polygon class="e" points="129.15 75.85 10.82 65.47 192.43 14.14 129.15 75.85"/><polygon class="j" points="10.82 65.47 163.7 42.46 192.43 14.14 10.82 65.47"/><polygon class="k" points="189.88 105.55 129.15 75.85 192.43 14.14 189.88 105.55"/><polygon class="l" points="130.15 52.11 161.14 26.22 55.44 24.1 130.15 52.11"/><polygon class="m" points="55.44 24.1 104.16 49.47 130.15 52.11 55.44 24.1"/><polygon class="e" points="161.14 26.22 55.44 24.1 145.76 39.08 161.14 26.22"/><polygon class="n" points="130.15 52.11 57.57 64.86 104.16 49.47 130.15 52.11"/><polygon class="o" points="151.18 45.75 133.56 61.67 108.09 46.6 151.18 45.75"/><polygon class="p" points="133.56 61.67 119.55 61.25 108.09 46.6 133.56 61.67"/><polygon class="e" points="108.09 46.6 141.63 54.67 151.18 45.75 108.09 46.6"/><polygon class="n" points="133.56 61.67 99.81 68.89 119.55 61.25 133.56 61.67"/><polygon class="q" points="119.34 83.43 108.56 87.2 121.89 90.18 119.34 83.43"/><polygon class="h" points="133.77 83.85 119.34 83.43 81.56 112.93 161.15 96.16 133.77 83.85"/><polygon class="e" points="81.56 112.93 119.34 83.43 133.77 83.85 81.56 112.93"/><polygon class="d" points="81.56 112.93 146.93 89.79 161.15 96.16 81.56 112.93"/><polygon class="r" points="129.15 75.85 155.87 88.92 190.19 94.44 192.03 28.42 159.36 46.39 129.15 75.85"/><polygon class="s" points="192.43 14.14 161.47 58.38 189.88 105.55 236.61 92.77 251.57 61.88 236.61 27.5 192.43 14.14"/><polygon class="t" points="192.43 14.14 161.47 58.38 189.88 105.55 236.61 92.77 251.57 61.88 236.61 27.5 192.43 14.14"/><polygon class="u" points="192.43 14.14 191.96 14.66 147.36 67.83 189.88 105.55 161.47 58.38 192.43 14.14"/><g class="v"><path class="w" d="M185.77,89.39l10.77-5a14.76,14.76,0,0,0,5.61,8.48,17.51,17.51,0,0,0,10.42,2.91q6,0,9.55-3.34a11.73,11.73,0,0,0,3.54-9q0-7.32-12.12-13c-1.14-.56-2-1-2.61-1.24q-13.71-6.69-18.28-12.1a19.85,19.85,0,0,1-4.56-13.23q0-10.16,6.89-16.44T213,21.16q9.18,0,15.35,3.54a18.72,18.72,0,0,1,8.56,10.18L226.4,40.32a17.59,17.59,0,0,0-5.47-5.73,12.84,12.84,0,0,0-6.83-1.81c-3.62,0-6.51.94-8.64,2.83a9.65,9.65,0,0,0-3.2,7.6q0,7.47,14.05,13.94l1.7.79Q230.31,63.61,234.9,69a20.16,20.16,0,0,1,4.59,13.51q0,11.79-7.42,18.73T212,108.21q-10.6,0-17.37-4.88A22.76,22.76,0,0,1,185.77,89.39Z" transform="translate(-5.47 -4.9)"/><path class="w" d="M212,109.83c-7.38,0-13.55-1.75-18.32-5.18a24.46,24.46,0,0,1-9.5-14.89l-.3-1.29,13.7-6.34L198.1,84a13.18,13.18,0,0,0,5,7.59,16,16,0,0,0,9.48,2.61c3.61,0,6.37-1,8.44-2.9a10.1,10.1,0,0,0,3-7.77c0-4.17-3.77-8.06-11.2-11.57-1.12-.56-2-1-2.56-1.23-9.5-4.62-15.65-8.72-18.87-12.54a21.48,21.48,0,0,1-4.94-14.27c0-7.21,2.49-13.14,7.41-17.64S205.2,19.54,213,19.54c6.37,0,11.81,1.26,16.16,3.76a20.35,20.35,0,0,1,9.28,11l.48,1.34-13.12,6.77-.8-1.25A16,16,0,0,0,220.09,36a11.3,11.3,0,0,0-6-1.58,11,11,0,0,0-7.56,2.43,8,8,0,0,0-2.66,6.38c0,4.27,4.41,8.46,13.11,12.46.72.35,1.28.61,1.69.79,8.5,3.92,14.21,7.68,17.46,11.51a21.83,21.83,0,0,1,5,14.56c0,8.29-2.67,15-7.94,19.92S220.82,109.83,212,109.83ZM187.67,90.29A20.93,20.93,0,0,0,195.58,102c4.21,3,9.74,4.57,16.43,4.57,8,0,14.33-2.19,19-6.5s6.91-10.09,6.91-17.55a18.68,18.68,0,0,0-4.21-12.46c-2.89-3.41-8.38-7-16.33-10.66-.41-.18-1-.45-1.71-.8-10.08-4.63-15-9.67-15-15.4a11.24,11.24,0,0,1,3.74-8.81c2.43-2.15,5.7-3.24,9.72-3.24a14.5,14.5,0,0,1,7.67,2.05,18.15,18.15,0,0,1,5.17,5l7.95-4.1a16.9,16.9,0,0,0-7.31-8c-3.86-2.21-8.75-3.33-14.55-3.33-7,0-12.7,2-17,5.87s-6.36,8.89-6.36,15.24a18.1,18.1,0,0,0,4.18,12.18c2.88,3.42,8.85,7.35,17.75,11.69.58.25,1.48.68,2.62,1.25,8.63,4.08,13,8.95,13,14.49a13.34,13.34,0,0,1-4.05,10.13c-2.66,2.51-6.24,3.79-10.66,3.79A19.19,19.19,0,0,1,201.2,94.2a16,16,0,0,1-5.64-7.56Z" transform="translate(-5.47 -4.9)"/></g><polygon class="q" points="161.47 58.38 251.57 61.88 236.61 92.77 189.88 105.55 161.47 58.38"/><polygon class="q" points="161.47 58.38 236.61 92.77 189.88 105.55 161.47 58.38"/><polygon class="e" points="192.43 14.14 251.57 61.88 236.61 27.5 192.43 14.14"/><path class="x" d="M282.53,130.27c0,4.56-62,8.26-138.53,8.26S5.47,134.83,5.47,130.27,67.49,122,144,122,282.53,125.71,282.53,130.27Z" transform="translate(-5.47 -4.9)"/><path class="y" d="M236.77,130.27c0,3-41.53,5.53-92.77,5.53s-92.77-2.48-92.77-5.53,41.53-5.53,92.77-5.53S236.77,127.21,236.77,130.27Z" transform="translate(-5.47 -4.9)"/></g></svg>