<svg xmlns="http://www.w3.org/2000/svg" xmlns:xlink="http://www.w3.org/1999/xlink" viewBox="0 0 68 68.71"><defs><style>.a{fill:none;}.b{isolation:isolate;}.c{fill:url(#a);}.d{fill:#fff;opacity:0.3;mix-blend-mode:overlay;}.e{fill:#48373f;}.f{mix-blend-mode:color-dodge;fill:url(#b);}.g{clip-path:url(#c);}.h{fill:#ededee;}.i{fill:#231f20;opacity:0.2;mix-blend-mode:multiply;}</style><linearGradient id="a" x1="307.72" y1="-163.15" x2="358.21" y2="-125.36" gradientTransform="translate(-327.02 102.46) rotate(14.47)" gradientUnits="userSpaceOnUse"><stop offset="0" stop-color="#fbaa19"/><stop offset="0.31" stop-color="#ee2424"/><stop offset="1" stop-color="#813092"/></linearGradient><radialGradient id="b" cx="88.9" cy="74.68" r="72.08" gradientTransform="translate(-0.5 0.71) scale(1 0.98)" gradientUnits="userSpaceOnUse"><stop offset="0.29" stop-color="#ec008c"/><stop offset="0.43" stop-color="#b3006a"/><stop offset="0.64" stop-color="#67003d"/><stop offset="0.81" stop-color="#2f001c"/><stop offset="0.93" stop-color="#0d0008"/><stop offset="1"/></radialGradient><clipPath id="c" transform="translate(-0.67 0.04)"><polygon class="a" points="24.03 0.67 0.67 33.57 22.11 68.67 57.38 59.15 68.67 36.18 57.38 10.6 24.03 0.67"/></clipPath></defs><title>webtouch</title><g class="b"><line class="c" x1="21.44" y1="68.71" x2="23.36" y2="0.71"/><path class="d" d="M24,.67" transform="translate(-0.67 0.04)"/><polygon class="e" points="23.36 0.71 0 33.62 21.44 68.71 56.71 59.2 68 36.22 56.71 10.64 23.36 0.71"/><polygon class="f" points="23.36 0.71 0 33.62 21.44 68.71 56.71 59.2 68 36.22 56.71 10.64 23.36 0.71"/><g class="g"><path class="h" d="M17.4,67.25V1.16H34.3A54.1,54.1,0,0,1,45,1.93a15.52,15.52,0,0,1,5.88,2.53,15,15,0,0,1,4.84,5.91,18.84,18.84,0,0,1,1.71,8.08A15.05,15.05,0,0,1,55,27.28a12.91,12.91,0,0,1-7.19,4.94A13.86,13.86,0,0,1,57,37.48a17.48,17.48,0,0,1,3.36,11A20.76,20.76,0,0,1,59,56.1a17.16,17.16,0,0,1-4,6.14,15.15,15.15,0,0,1-6.82,3.89Q44,67.26,34.4,67.25ZM28.08,29.06h4.16q7.78,0,11-2.1t3.23-7.06c0-3.61-1-6.15-3-7.61S37.77,10.1,32.24,10.1H28.08Zm0,29.21h3.75a59.72,59.72,0,0,0,8.57-.45,10.93,10.93,0,0,0,4.48-1.58A8.72,8.72,0,0,0,48,52.72a10.86,10.86,0,0,0,1.1-4.88,11,11,0,0,0-1.33-5.51A9.23,9.23,0,0,0,44,38.68a13.45,13.45,0,0,0-3.55-1.13,31,31,0,0,0-5.29-.36H28.08Z" transform="translate(-0.67 0.04)"/><path class="h" d="M34.4,68.46H16.18V0H34.3a55.2,55.2,0,0,1,11,.79,17,17,0,0,1,6.34,2.74,16.31,16.31,0,0,1,5.22,6.37,20.14,20.14,0,0,1,1.83,8.59A16.29,16.29,0,0,1,56,28a13.35,13.35,0,0,1-4.44,4A14.63,14.63,0,0,1,58,36.75a18.69,18.69,0,0,1,3.62,11.72,22.11,22.11,0,0,1-1.5,8.07,18.35,18.35,0,0,1-4.32,6.56,16.41,16.41,0,0,1-7.35,4.19C45.57,68.08,41,68.46,34.4,68.46ZM18.63,66.05H34.4c6.27,0,10.76-.37,13.36-1.09A14,14,0,0,0,54,61.4a16.14,16.14,0,0,0,3.76-5.73,19.55,19.55,0,0,0,1.34-7.2A16.36,16.36,0,0,0,56,38.21a12.54,12.54,0,0,0-8.44-4.8l-5.32-.82,5.16-1.52A11.63,11.63,0,0,0,54,26.59a13.91,13.91,0,0,0,2.26-8.14,17.73,17.73,0,0,0-1.6-7.57,14,14,0,0,0-4.45-5.45,14.52,14.52,0,0,0-5.43-2.32A53.18,53.18,0,0,0,34.3,2.37H18.63Zm13.2-6.57h-5V36h8.28a32.58,32.58,0,0,1,5.51.38,14.72,14.72,0,0,1,3.88,1.24,10.48,10.48,0,0,1,4.32,4.15,12.26,12.26,0,0,1,1.48,6.09,12,12,0,0,1-1.22,5.41,10.08,10.08,0,0,1-3.54,4,12.32,12.32,0,0,1-5,1.76A60.35,60.35,0,0,1,31.83,59.48ZM29.3,57.06h2.53a58.65,58.65,0,0,0,8.37-.43,10,10,0,0,0,4-1.38,7.57,7.57,0,0,0,2.71-3.06,9.65,9.65,0,0,0,1-4.35,9.87,9.87,0,0,0-1.17-4.92,8,8,0,0,0-3.31-3.18,12.33,12.33,0,0,0-3.19-1,29.58,29.58,0,0,0-5.07-.34H29.3Zm2.94-26.79H26.85V8.89h5.39c5.85,0,9.78.8,12,2.43s3.47,4.58,3.47,8.58c0,3.72-1.27,6.44-3.78,8.07S37.73,30.27,32.24,30.27ZM29.3,27.86h2.94c4.93,0,8.41-.64,10.34-1.9s2.68-3.16,2.68-6.06c0-3.19-.83-5.43-2.48-6.64-1.21-.89-4-1.95-10.54-1.95H29.3Z" transform="translate(-0.67 0.04)"/></g><polygon class="i" points="0 33.62 68 36.22 56.71 59.2 21.44 68.71 0 33.62"/><polygon class="i" points="0 33.62 56.71 59.2 21.44 68.71 0 33.62"/><polygon class="d" points="23.36 0.71 68 36.22 56.71 10.64 23.36 0.71"/></g></svg>